<svg width="2000" height="1600" xmlns="http://www.w3.org/2000/svg"><path d="M1039.878 1420.494l-369.29-6.754c-119.568-2.353-239.434 2.345-356.657-22.038-178.324-36.43-190.958-215.051-204.177-364.88-18.215-210.642-11.163-425.107 23.21-633.99 19.405-117.206 95.772-187.144 213.87-194.754 398.669-27.62 799.988-24.347 1197.772-11.46 42.012 1.18 84.311 7.637 125.736 14.986 204.483 35.843 209.47 238.261 222.725 408.659 13.22 172.156 7.638 345.196-17.629 516.18-20.27 141.57-59.053 260.29-222.724 271.752-205.07 14.986-405.432 27.051-611.078 23.21.01-.911-1.172-.911-1.758-.911zM822.77 1062.079c154.537-88.73 306.125-175.98 459.778-264.114-154.826-88.73-306.125-175.98-459.778-264.114v528.228z" fill="red"/></svg>